<svg width="488" height="552" viewBox="0 0 488 552" fill="none" xmlns="http://www.w3.org/2000/svg">
<path d="M273.197 43.4645L380.254 0.641327L487.312 0.641327V107.699L380.254 107.699L273.197 150.522V43.4645Z" fill="white"/>
<path d="M321.373 171.934L380.255 150.522H487.312V257.58H380.255L321.373 278.992V171.934Z" fill="white"/>
<rect x="487.486" y="0.641327" width="545.136" height="107.911" transform="rotate(90 487.486 0.641327)" fill="white"/>
<path d="M212.128 551.359C169.658 551.359 132.517 543.139 100.706 526.7C68.8954 510.084 44.1628 486.927 26.5086 457.23C8.85434 427.533 0.0272217 392.887 0.0272217 353.291V0.641296H108.201V343.481C108.201 364.163 112.448 382.546 120.942 398.632C129.603 414.718 141.761 427.357 157.416 436.549C173.072 445.74 191.309 450.336 212.128 450.336H487.487V551.359H212.128Z" fill="white"/>
</svg>
